<svg version="1.2" xmlns="http://www.w3.org/2000/svg" viewBox="0 0 115 134" width="440" height="513">
	<style>
		.s0 { opacity: .85;fill: #00d9e9 } 
		.s1 { fill: #d4a574 } 
		.s2 { opacity: .4;fill: #2fa89f } 
		.s3 { opacity: .6;fill: #2fa89f;stroke: #1e7a6b;stroke-linecap: round;stroke-width: 2.5 } 
	</style>
	<g>
		<path class="s0" d="m61 10l-32 90q-2 6 6 8 4 1 8-6l18-37z"/>
		<path class="s1" d="m61 10l24 95q2 7-6 9-4 1-6-8l-12-41z"/>
		<path fill-rule="evenodd" class="s2" d="m61 120c-17.7 0-32-4.47-32-10 0-5.53 14.3-10 32-10 17.7 0 32 4.47 32 10 0 5.53-14.3 10-32 10z"/>
		<path class="s3" d="m21 116q5 4 16 2 12-2 24 0 12 2 24 0 11-2 16 2"/>
	</g>
</svg>